
o bigdollar
v -0.019716 -0.079973 -0.039695
v -0.019716 -0.079973 -0.039695
v -0.019716 -0.079973 -0.039695
v -0.031752 -0.064663 -0.039695
v -0.031752 -0.064663 -0.039695
v -0.038481 -0.053090 -0.039695
v -0.038481 -0.053090 -0.039695
v -0.042662 -0.039512 -0.039695
v -0.042662 -0.039512 -0.039695
v -0.042662 -0.039512 -0.039695
v -0.090214 -0.044935 -0.039695
v -0.090214 -0.044935 -0.039695
v -0.090214 -0.044935 -0.039695
v -0.081213 -0.076686 -0.039695
v -0.081213 -0.076686 -0.039695
v -0.065121 -0.100350 -0.039695
v -0.065121 -0.100350 -0.039695
v -0.042493 -0.116016 -0.039695
v -0.042493 -0.116016 -0.039695
v -0.042493 -0.116016 -0.039695
v -0.019716 -0.123771 -0.039695
v -0.019716 -0.123771 -0.039695
v -0.019716 -0.123771 -0.039695
v -0.019716 -0.157557 -0.039695
v -0.019716 -0.157557 -0.039695
v -0.019716 -0.157557 -0.039695
v 0.019329 -0.157557 -0.039695
v 0.019329 -0.157557 -0.039695
v 0.019329 -0.157557 -0.039695
v 0.019329 -0.123353 -0.039695
v 0.019329 -0.123353 -0.039695
v 0.019329 -0.123353 -0.039695
v 0.044238 -0.113558 -0.039695
v 0.044238 -0.113558 -0.039695
v 0.044238 -0.113558 -0.039695
v 0.068236 -0.095276 -0.039695
v 0.068236 -0.095276 -0.039695
v 0.083294 -0.070163 -0.039695
v 0.083294 -0.070163 -0.039695
v 0.088313 -0.039871 -0.039695
v 0.088313 -0.039871 -0.039695
v 0.084325 -0.013101 -0.039695
v 0.084325 -0.013101 -0.039695
v 0.072362 0.008355 -0.039695
v 0.072362 0.008355 -0.039695
v 0.049395 0.025401 -0.039695
v 0.049395 0.025401 -0.039695
v 0.049395 0.025401 -0.039695
v 0.019329 0.038939 -0.039695
v 0.019329 0.038939 -0.039695
v 0.019329 0.038939 -0.039695
v 0.019329 0.109816 -0.039695
v 0.019329 0.109816 -0.039695
v 0.019329 0.109816 -0.039695
v 0.026821 0.098525 -0.039695
v 0.026821 0.098525 -0.039695
v 0.034505 0.080201 -0.039695
v 0.034505 0.080201 -0.039695
v 0.034505 0.080201 -0.039695
v 0.080805 0.085623 -0.039695
v 0.080805 0.085623 -0.039695
v 0.080805 0.085623 -0.039695
v 0.072917 0.110882 -0.039695
v 0.072917 0.110882 -0.039695
v 0.058796 0.130477 -0.039695
v 0.058796 0.130477 -0.039695
v 0.038577 0.143912 -0.039695
v 0.038577 0.143912 -0.039695
v 0.038577 0.143912 -0.039695
v 0.019329 0.150694 -0.039695
v 0.019329 0.150694 -0.039695
v 0.019329 0.150694 -0.039695
v 0.019329 0.168630 -0.039695
v 0.019329 0.168630 -0.039695
v 0.019329 0.168630 -0.039695
v -0.019716 0.168630 -0.039695
v -0.019716 0.168630 -0.039695
v -0.019716 0.168630 -0.039695
v -0.019716 0.150694 -0.039695
v -0.019716 0.150694 -0.039695
v -0.019716 0.150694 -0.039695
v -0.042174 0.143295 -0.039695
v -0.042174 0.143295 -0.039695
v -0.042174 0.143295 -0.039695
v -0.064212 0.127277 -0.039695
v -0.064212 0.127277 -0.039695
v -0.078395 0.104555 -0.039695
v -0.078395 0.104555 -0.039695
v -0.083123 0.077046 -0.039695
v -0.083123 0.077046 -0.039695
v -0.078943 0.049725 -0.039695
v -0.078943 0.049725 -0.039695
v -0.066405 0.026823 -0.039695
v -0.066405 0.026823 -0.039695
v -0.044916 0.008766 -0.039695
v -0.044916 0.008766 -0.039695
v -0.044916 0.008766 -0.039695
v -0.019716 -0.004018 -0.039695
v -0.019716 -0.004018 -0.039695
v -0.019716 -0.004018 -0.039695
v -0.019716 0.047639 -0.039695
v -0.019716 0.047639 -0.039695
v -0.019716 0.047639 -0.039695
v -0.031706 0.060955 -0.039695
v -0.031706 0.060955 -0.039695
v -0.036169 0.069532 -0.039695
v -0.036169 0.069532 -0.039695
v -0.037657 0.078786 -0.039695
v -0.037657 0.078786 -0.039695
v -0.036032 0.088834 -0.039695
v -0.036032 0.088834 -0.039695
v -0.031159 0.097977 -0.039695
v -0.031159 0.097977 -0.039695
v -0.019716 0.106374 -0.039695
v -0.019716 0.106374 -0.039695
v -0.019716 0.106374 -0.039695
v 0.019329 -0.011813 -0.039695
v 0.019329 -0.011813 -0.039695
v 0.019329 -0.011813 -0.039695
v 0.026626 -0.017550 -0.039695
v 0.026626 -0.017550 -0.039695
v 0.036294 -0.025324 -0.039695
v 0.036294 -0.025324 -0.039695
v 0.041835 -0.034953 -0.039695
v 0.041835 -0.034953 -0.039695
v 0.043682 -0.046258 -0.039695
v 0.043682 -0.046258 -0.039695
v 0.041490 -0.058970 -0.039695
v 0.041490 -0.058970 -0.039695
v 0.034916 -0.069913 -0.039695
v 0.034916 -0.069913 -0.039695
v 0.019329 -0.082893 -0.039695
v 0.019329 -0.082893 -0.039695
v 0.019329 -0.082893 -0.039695
v -0.019716 -0.079973 0.032923
v -0.019716 -0.079973 0.032923
v -0.019716 -0.079973 0.032923
v -0.031752 -0.064663 0.032923
v -0.031752 -0.064663 0.032923
v -0.038481 -0.053090 0.032923
v -0.038481 -0.053090 0.032923
v -0.042662 -0.039512 0.032923
v -0.042662 -0.039512 0.032923
v -0.042662 -0.039512 0.032923
v -0.090214 -0.044935 0.032923
v -0.090214 -0.044935 0.032923
v -0.090214 -0.044935 0.032923
v -0.081213 -0.076686 0.032923
v -0.081213 -0.076686 0.032923
v -0.065121 -0.100350 0.032923
v -0.065121 -0.100350 0.032923
v -0.042493 -0.116016 0.032923
v -0.042493 -0.116016 0.032923
v -0.042493 -0.116016 0.032923
v -0.019716 -0.123771 0.032923
v -0.019716 -0.123771 0.032923
v -0.019716 -0.123771 0.032923
v -0.019716 -0.157557 0.032923
v -0.019716 -0.157557 0.032923
v -0.019716 -0.157557 0.032923
v 0.019329 -0.157557 0.032923
v 0.019329 -0.157557 0.032923
v 0.019329 -0.157557 0.032923
v 0.019329 -0.123353 0.032923
v 0.019329 -0.123353 0.032923
v 0.019329 -0.123353 0.032923
v 0.044238 -0.113558 0.032923
v 0.044238 -0.113558 0.032923
v 0.044238 -0.113558 0.032923
v 0.068236 -0.095276 0.032923
v 0.068236 -0.095276 0.032923
v 0.083294 -0.070163 0.032923
v 0.083294 -0.070163 0.032923
v 0.088313 -0.039871 0.032923
v 0.088313 -0.039871 0.032923
v 0.084325 -0.013101 0.032923
v 0.084325 -0.013101 0.032923
v 0.072362 0.008355 0.032923
v 0.072362 0.008355 0.032923
v 0.049395 0.025401 0.032923
v 0.049395 0.025401 0.032923
v 0.049395 0.025401 0.032923
v 0.019329 0.038939 0.032923
v 0.019329 0.038939 0.032923
v 0.019329 0.038939 0.032923
v 0.019329 0.109816 0.032923
v 0.019329 0.109816 0.032923
v 0.019329 0.109816 0.032923
v 0.026821 0.098525 0.032923
v 0.026821 0.098525 0.032923
v 0.034505 0.080201 0.032923
v 0.034505 0.080201 0.032923
v 0.034505 0.080201 0.032923
v 0.080805 0.085623 0.032923
v 0.080805 0.085623 0.032923
v 0.080805 0.085623 0.032923
v 0.072917 0.110882 0.032923
v 0.072917 0.110882 0.032923
v 0.058796 0.130477 0.032923
v 0.058796 0.130477 0.032923
v 0.038577 0.143913 0.032923
v 0.038577 0.143913 0.032923
v 0.038577 0.143913 0.032923
v 0.019329 0.150694 0.032923
v 0.019329 0.150694 0.032923
v 0.019329 0.150694 0.032923
v 0.019329 0.168630 0.032923
v 0.019329 0.168630 0.032923
v 0.019329 0.168630 0.032923
v -0.019716 0.168630 0.032923
v -0.019716 0.168630 0.032923
v -0.019716 0.168630 0.032923
v -0.019716 0.150694 0.032923
v -0.019716 0.150694 0.032923
v -0.019716 0.150694 0.032923
v -0.042174 0.143295 0.032923
v -0.042174 0.143295 0.032923
v -0.042174 0.143295 0.032923
v -0.064212 0.127277 0.032923
v -0.064212 0.127277 0.032923
v -0.078395 0.104555 0.032923
v -0.078395 0.104555 0.032923
v -0.083123 0.077046 0.032923
v -0.083123 0.077046 0.032923
v -0.078943 0.049725 0.032923
v -0.078943 0.049725 0.032923
v -0.066405 0.026823 0.032923
v -0.066405 0.026823 0.032923
v -0.044916 0.008766 0.032923
v -0.044916 0.008766 0.032923
v -0.044916 0.008766 0.032923
v -0.019716 -0.004018 0.032923
v -0.019716 -0.004018 0.032923
v -0.019716 -0.004018 0.032923
v -0.019716 0.047639 0.032923
v -0.019716 0.047639 0.032923
v -0.019716 0.047639 0.032923
v -0.031706 0.060955 0.032923
v -0.031706 0.060955 0.032923
v -0.036169 0.069532 0.032923
v -0.036169 0.069532 0.032923
v -0.037657 0.078786 0.032923
v -0.037657 0.078786 0.032923
v -0.036032 0.088834 0.032923
v -0.036032 0.088834 0.032923
v -0.031159 0.097977 0.032923
v -0.031159 0.097977 0.032923
v -0.019716 0.106374 0.032923
v -0.019716 0.106374 0.032923
v -0.019716 0.106374 0.032923
v 0.019329 -0.011813 0.032923
v 0.019329 -0.011813 0.032923
v 0.019329 -0.011813 0.032923
v 0.026626 -0.017550 0.032923
v 0.026626 -0.017550 0.032923
v 0.036294 -0.025324 0.032923
v 0.036294 -0.025324 0.032923
v 0.041835 -0.034953 0.032923
v 0.041835 -0.034953 0.032923
v 0.043682 -0.046258 0.032923
v 0.043682 -0.046258 0.032923
v 0.041490 -0.058970 0.032923
v 0.041490 -0.058970 0.032923
v 0.034916 -0.069913 0.032923
v 0.034916 -0.069913 0.032923
v 0.019329 -0.082893 0.032923
v 0.019329 -0.082893 0.032923
v 0.019329 -0.082893 0.032923
vt -0.679951 -0.654577
vt 0.039330 -0.751819
vt 0.039330 -0.654577
vt -0.679951 -0.751819
vt -0.679951 -0.280989
vt 0.039330 -0.364665
vt 0.039330 -0.280989
vt -0.679951 -0.196740
vt -0.679951 -0.364665
vt 0.039330 -0.196740
vt 0.039330 -0.824294
vt 0.365508 -0.364665
vt 0.424860 -0.127151
vt 0.348670 -0.280989
vt 0.936434 -0.364665
vt 0.959821 -0.280989
vt 0.854001 -0.127151
vt 0.367717 -0.196740
vt 0.933366 -0.196740
vt 0.039330 -0.434808
vt 0.320100 -0.054624
vt 0.511684 0.944376
vt 0.320100 0.944376
vt -0.679951 -0.127151
vt 0.356364 -0.751819
vt 0.511684 -0.637969
vt 0.320100 -0.654577
vt 0.949135 -0.751819
vt 0.999501 -0.654577
vt 0.733411 -0.637969
vt -0.679951 -0.434808
vt -0.679951 -0.824294
vt 0.416023 -0.434808
vt 0.866274 -0.434808
vt 0.039330 -0.127151
vt 0.421196 -0.824294
vt 0.528529 -0.679553
vt 0.859089 -0.824294
vt 0.710016 -0.679553
vt 0.039330 -0.490109
vt 0.511684 -0.054625
vt 0.502605 -0.490109
vt 0.746021 -0.490109
vt 0.039330 -0.872272
vt -0.679951 -0.078092
vt -0.679951 -0.490109
vt -0.679951 -0.872272
vt 0.039330 -0.078092
vt 0.512367 -0.872272
vt 0.555641 -0.714998
vt 0.732463 -0.872272
vt 0.672360 -0.714998
vt 0.537845 -0.304004
vt 0.531851 -0.275660
vt 0.705402 -0.275660
vt 0.697078 -0.304004
vt 0.538396 -0.244888
vt 0.696312 -0.244888
vt 0.558031 -0.216885
vt 0.669041 -0.216885
vt 0.604133 -0.529263
vt 0.605010 -0.529263
vt 0.680670 -0.637969
vt 1.399951 -0.679553
vt 1.399951 -0.637969
vt 0.680670 -0.679553
vt 0.604133 -0.191168
vt 0.605010 -0.191168
vt 0.680670 -0.275660
vt 1.399951 -0.304004
vt 1.399951 -0.275660
vt 0.680670 -0.244888
vt 0.680670 -0.304004
vt 1.399951 -0.244888
vt 0.217395 0.944376
vt 0.115867 -0.054625
vt 0.217395 -0.054625
vt 1.399951 -0.714998
vt 0.207633 0.944376
vt 0.115867 -0.054625
vt 0.207633 -0.054625
vt 0.513650 -0.054625
vt 0.604133 0.944376
vt 0.513650 0.944376
vt 1.399951 -0.330273
vt 0.680670 -0.216885
vt 0.680670 -0.714998
vt 0.680670 -0.330273
vt 1.399951 -0.216885
vt 0.604133 -0.761886
vt 0.605010 -0.761886
vt 0.555825 -0.330273
vt 0.672104 -0.330273
vt 0.761446 -0.180626
vt 0.513650 -0.078092
vt 0.730681 -0.078092
vt 0.386520 -0.180626
vt 0.115867 0.944376
vt 1.399951 -0.761886
vt 1.399951 -0.371053
vt 0.680670 -0.191168
vt 0.604133 -0.896023
vt 0.115867 0.944376
vt 0.605010 -0.896023
vt 0.604133 -0.054625
vt 0.680670 -0.761886
vt 0.604133 -0.371053
vt 0.680670 -0.371053
vt 0.605010 -0.371053
vt 1.399951 -0.191168
vt -0.679950 -0.896023
vt 0.039330 -0.999501
vt 0.039330 -0.896023
vt -0.679950 -0.529263
vt 0.039330 -0.761886
vt 0.039330 -0.529263
vt -0.679950 -0.191168
vt 0.039330 -0.371053
vt 0.039330 -0.191168
vt -0.679950 -0.000499
vt 0.039330 -0.055432
vt 0.039330 -0.000499
vt -0.679950 -0.999501
vt -0.679950 -0.761886
vt -0.679950 -0.371053
vt -0.679950 -0.055432
vt 0.604133 -0.055432
vt 0.605010 -0.055432
vt 0.761446 -0.999501
vt 0.604133 -0.999501
vt 0.761446 -0.553136
vt 0.761446 -0.000499
vt 0.604133 -0.000499
vt 0.115867 0.944376
vt -0.041446 -0.054625
vt 0.115867 -0.054625
vt 0.604133 -0.054625
vt 0.761446 0.944376
vt 0.604133 0.944376
vt 0.386520 -0.999501
vt 0.605010 -0.999501
vt 0.386520 -0.553136
vt 0.605010 -0.000499
vt 0.386520 -0.000499
vt 0.761446 -0.894746
vt 0.761446 -0.770829
vt 0.761446 -0.397701
vt 0.761446 -0.055432
vt 0.761446 -0.054625
vt -0.041446 0.944376
vt 0.386520 -0.894746
vt 0.386520 -0.770829
vt 0.386520 -0.397701
vt 0.386520 -0.055432
vt 0.790845 -0.570706
vt 0.345689 -0.570706
vt 1.399950 -0.999501
vt 0.680670 -0.894746
vt 0.680670 -0.999501
vt 1.399950 -0.770829
vt 0.680670 -0.553136
vt 0.680670 -0.770829
vt 1.399950 -0.397701
vt 0.680670 -0.180626
vt 0.680670 -0.397701
vt 1.399950 -0.055432
vt 0.680670 -0.000499
vt 0.680670 -0.055432
vt 1.399950 -0.894746
vt 1.399950 -0.553136
vt 1.399950 -0.180626
vt 1.399950 -0.000499
vt -0.679950 -0.553136
vt 0.039330 -0.570706
vt 0.039330 -0.553136
vt -0.679950 -0.180626
vt 0.039330 -0.215208
vt 0.039330 -0.180626
vt -0.679950 -0.570706
vt -0.679950 -0.215208
vt 0.039330 -0.770829
vt -0.679950 -0.731077
vt -0.679950 -0.770829
vt 0.838993 -0.076201
vt 0.761446 -0.054625
vt 0.838994 0.944376
vt 0.761446 0.944376
vt 0.278815 -0.076201
vt 0.861802 -0.864745
vt 0.247136 -0.864745
vt -0.041446 0.944376
vt -0.141802 -0.054625
vt -0.041446 -0.054625
vt 0.791629 -0.215208
vt 0.344599 -0.215208
vt 0.761446 -0.054625
vt 0.882580 0.944375
vt 0.761446 0.944376
vt 0.039330 -0.271328
vt 0.039330 -0.731077
vt 0.039330 -0.594515
vt 0.882580 -0.439162
vt 0.218279 -0.439162
vt -0.679950 -0.271328
vt 0.838993 -0.054625
vt 0.824243 -0.731077
vt 0.299303 -0.731077
vt -0.679950 -0.594515
vt -0.141803 0.944376
vt -0.679950 -0.697560
vt 0.829796 -0.594515
vt 0.291589 -0.594515
vt 0.039330 -0.624007
vt 0.039330 -0.697560
vt 0.882580 -0.054625
vt -0.679950 -0.624007
vt 0.850731 -0.697560
vt 0.262513 -0.697560
vt 0.920455 -0.117350
vt 0.165675 -0.117350
vt -0.679950 -0.658629
vt 0.039330 -0.658629
vt 0.852120 -0.624007
vt 0.260585 -0.624007
vt 0.859561 -0.658629
vt 0.250250 -0.658629
vt 0.086652 -0.177363
vt 0.301600 -0.271328
vt 0.977351 -0.177363
vt 0.822588 -0.271328
vt 0.680670 -0.076201
vt 1.399950 -0.117350
vt 1.399950 -0.076201
vt -0.102588 0.944376
vt -0.289131 -0.054625
vt -0.102588 -0.054625
vt 0.680670 -0.117350
vt 1.399950 -0.864745
vt 0.680670 -0.808755
vt 0.680670 -0.864745
vt 0.958491 -0.808755
vt 0.112847 -0.808755
vt 0.680670 -0.439162
vt 1.399950 -0.491367
vt 1.399950 -0.439162
vt 1.399950 -0.808755
vt 0.042514 -0.254721
vt 1.009131 -0.254721
vt 1.399950 -0.177363
vt 0.680670 -0.491367
vt -0.289131 0.944375
vt 1.019158 -0.731840
vt 0.028586 -0.731840
vt 0.680670 -0.177363
vt 1.023314 -0.557081
vt 0.975112 -0.491367
vt 0.089761 -0.491367
vt 0.022815 -0.557081
vt 0.680670 -0.731840
vt 0.000500 -0.639067
vt 1.039381 -0.639067
vt 1.399950 -0.254721
vt 1.399950 -0.557081
vt 0.680670 -0.254721
vt 1.399950 -0.731840
vt 0.680670 -0.557081
vt 0.680670 -0.639067
vt 1.399950 -0.639067
vn -0.9621 -0.2727 0.0000
vn -0.9885 -0.1512 0.0000
vn -0.9856 0.1694 0.0000
vn -0.8269 -0.5623 -0.0000
vn 0.0000 0.0000 1.0000
vn 0.0000 0.0000 -1.0000
vn -0.8772 -0.4802 0.0000
vn -0.1133 0.9936 0.0000
vn -0.8483 0.5295 0.0000
vn -0.6433 -0.7656 0.0000
vn -0.5692 -0.8222 0.0000
vn -0.5879 0.8089 -0.0000
vn 0.9557 0.2943 0.0000
vn 0.9873 0.1587 0.0000
vn 0.9872 -0.1596 0.0000
vn -0.4524 -0.8918 0.0000
vn 0.8645 0.5027 0.0000
vn -0.3223 -0.9466 0.0000
vn -0.3129 0.9498 -0.0000
vn 0.8871 0.4616 0.0000
vn 0.8825 -0.4704 0.0000
vn 0.7861 0.6180 0.0000
vn 0.7431 0.6692 0.0000
vn 0.5916 -0.8062 0.0000
vn -1.0000 0.0000 0.0000
vn 0.0000 -1.0000 -0.0000
vn 0.0000 1.0000 0.0000
vn 1.0000 0.0000 0.0000
vn -0.6181 -0.7861 0.0000
vn -0.8333 -0.5529 0.0000
vn -0.6399 0.7684 0.0000
vn 0.3323 0.9432 0.0000
vn 0.3660 -0.9306 0.0000
vn 0.4106 0.9118 0.0000
vn -0.9222 -0.3867 0.0000
vn -0.6266 -0.7793 0.0000
vn -0.8572 0.5150 0.0000
vn -0.8668 -0.4987 0.0000
vn -0.9855 0.1699 0.0000
vn -0.9869 -0.1612 0.0000
vn 0.5535 0.8329 -0.0000
vn 0.1163 -0.9932 0.0000
vn 0.6060 -0.7955 0.0000
vn 0.5960 0.8030 0.0000
vn 0.8113 0.5847 0.0000
vn 0.8576 -0.5142 0.0000
vn 0.9545 0.2981 -0.0000
vn 0.8734 0.4870 0.0000
vn 0.9865 -0.1635 -0.0000
vn 0.9891 0.1473 -0.0000
usemtl g0m0.002
s off
f 11/1/1 148/2/1 145/3/1
f 148/2/1 11/1/1 14/4/1
f 89/5/2 225/6/2 223/7/2
f 223/7/3 87/8/3 89/5/3
f 225/6/2 89/5/2 91/9/2
f 87/8/3 223/7/3 221/10/3
f 14/4/4 150/11/4 148/2/4
f 226/12/5 220/13/5 224/14/5
f 92/15/6 90/16/6 86/17/6
f 224/14/5 220/13/5 222/18/5
f 90/16/6 88/19/6 86/17/6
f 91/9/7 227/20/7 225/6/7
f 146/21/8 8/22/8 12/23/8
f 221/10/9 85/24/9 87/8/9
f 149/25/5 143/26/5 147/27/5
f 15/28/6 13/29/6 9/30/6
f 227/20/7 91/9/7 93/31/7
f 150/11/4 14/4/4 16/32/4
f 228/33/5 220/13/5 226/12/5
f 94/34/6 92/15/6 86/17/6
f 85/24/9 221/10/9 219/35/9
f 151/36/5 140/37/5 149/25/5
f 17/38/6 15/28/6 6/39/6
f 93/31/10 229/40/10 227/20/10
f 8/22/8 146/21/8 142/41/8
f 231/42/5 220/13/5 228/33/5
f 97/43/6 94/34/6 86/17/6
f 16/32/11 152/44/11 150/11/11
f 219/35/12 82/45/12 85/24/12
f 149/25/5 140/37/5 143/26/5
f 15/28/6 9/30/6 6/39/6
f 229/40/10 93/31/10 95/46/10
f 152/44/11 16/32/11 18/47/11
f 82/45/12 219/35/12 216/48/12
f 154/49/5 138/50/5 151/36/5
f 20/51/6 17/38/6 4/52/6
f 220/13/5 240/53/5 242/54/5
f 86/17/6 108/55/6 106/56/6
f 220/13/5 242/54/5 244/57/5
f 86/17/6 110/58/6 108/55/6
f 151/36/5 138/50/5 140/37/5
f 17/38/6 6/39/6 4/52/6
f 220/13/5 244/57/5 246/59/5
f 86/17/6 112/60/6 110/58/6
f 234/61/5 220/13/5 231/42/5
f 100/62/6 97/43/6 86/17/6
f 144/63/13 7/64/13 10/65/13
f 234/61/5 240/53/5 220/13/5
f 100/62/6 86/17/6 106/56/6
f 7/64/13 144/63/13 141/66/13
f 220/13/5 246/59/5 249/67/5
f 86/17/6 115/68/6 112/60/6
f 243/69/14 107/70/14 109/71/14
f 109/71/15 245/72/15 243/69/15
f 107/70/14 243/69/14 241/73/14
f 245/72/15 109/71/15 111/74/15
f 96/75/16 233/76/16 230/77/16
f 141/66/17 5/78/17 7/64/17
f 19/79/18 156/80/18 153/81/18
f 217/82/19 80/83/19 83/84/19
f 241/73/20 105/85/20 107/70/20
f 111/74/21 247/86/21 245/72/21
f 5/78/17 141/66/17 139/87/17
f 105/85/20 241/73/20 239/88/20
f 247/86/21 111/74/21 113/89/21
f 154/49/5 136/90/5 138/50/5
f 20/51/6 4/52/6 2/91/6
f 238/92/5 240/53/5 234/61/5
f 104/93/6 100/62/6 106/56/6
f 220/13/5 188/94/5 218/95/5
f 86/17/6 84/96/6 53/97/6
f 233/76/16 96/75/16 99/98/16
f 139/87/22 3/99/22 5/78/22
f 239/88/23 103/100/23 105/85/23
f 113/89/24 250/101/24 247/86/24
f 157/102/5 136/90/5 154/49/5
f 156/80/18 19/79/18 22/103/18
f 23/104/6 20/51/6 2/91/6
f 80/83/19 217/82/19 214/105/19
f 3/99/22 139/87/22 137/106/22
f 238/92/5 234/61/5 236/107/5
f 103/100/23 239/88/23 237/108/23
f 104/93/6 102/109/6 100/62/6
f 250/101/24 113/89/24 116/110/24
f 220/13/5 249/67/5 188/94/5
f 86/17/6 53/97/6 115/68/6
f 21/111/25 158/112/25 155/113/25
f 98/114/25 135/115/25 232/116/25
f 114/117/25 235/118/25 248/119/25
f 76/120/25 213/121/25 210/122/25
f 158/112/25 21/111/25 24/123/25
f 135/115/25 98/114/25 1/124/25
f 235/118/25 114/117/25 101/125/25
f 213/121/25 76/120/25 79/126/25
f 218/95/5 188/94/5 215/127/5
f 84/96/6 81/128/6 53/97/6
f 163/129/5 157/102/5 160/130/5
f 163/129/5 136/90/5 157/102/5
f 163/129/5 234/61/5 136/90/5
f 236/107/5 234/61/5 163/129/5
f 236/107/5 253/131/5 249/67/5
f 215/127/5 208/132/5 211/133/5
f 25/134/26 161/135/26 159/136/26
f 212/137/27 74/138/27 77/139/27
f 28/140/6 26/141/6 23/104/6
f 28/140/6 23/104/6 2/91/6
f 28/140/6 2/91/6 100/62/6
f 102/109/6 28/140/6 100/62/6
f 102/109/6 115/68/6 118/142/6
f 81/128/6 78/143/6 73/144/6
f 166/145/5 236/107/5 163/129/5
f 166/145/5 268/146/5 236/107/5
f 236/107/5 268/146/5 253/131/5
f 188/94/5 249/67/5 185/147/5
f 215/127/5 188/94/5 206/148/5
f 215/127/5 206/148/5 208/132/5
f 74/138/27 212/137/27 209/149/27
f 161/135/26 25/134/26 27/150/26
f 31/151/6 28/140/6 102/109/6
f 31/151/6 102/109/6 133/152/6
f 102/109/6 118/142/6 133/152/6
f 53/97/6 49/153/6 115/68/6
f 81/128/6 70/154/6 53/97/6
f 81/128/6 73/144/6 70/154/6
f 255/155/5 249/67/5 253/131/5
f 185/147/5 249/67/5 255/155/5
f 121/156/6 118/142/6 115/68/6
f 49/153/6 121/156/6 115/68/6
f 29/157/28 165/158/28 162/159/28
f 134/160/28 252/161/28 267/162/28
f 51/163/28 187/164/28 183/165/28
f 72/166/28 207/167/28 204/168/28
f 165/158/28 29/157/28 32/169/28
f 252/161/28 134/160/28 119/170/28
f 187/164/28 51/163/28 54/171/28
f 207/167/28 72/166/28 75/172/28
f 117/173/29 254/174/29 251/175/29
f 52/176/30 189/177/30 186/178/30
f 254/174/29 117/173/29 120/179/29
f 189/177/30 52/176/30 55/180/30
f 266/181/31 130/182/31 132/183/31
f 206/148/5 188/94/5 203/184/5
f 205/185/32 68/186/32 71/187/32
f 70/154/6 67/188/6 53/97/6
f 169/189/5 268/146/5 166/145/5
f 34/190/6 31/151/6 133/152/6
f 30/191/33 167/192/33 164/193/33
f 203/184/5 188/94/5 190/194/5
f 67/188/6 56/195/6 53/97/6
f 184/196/34 47/197/34 50/198/34
f 55/180/35 192/199/35 189/177/35
f 130/182/31 266/181/31 264/200/31
f 120/179/36 256/201/36 254/174/36
f 185/147/5 255/155/5 182/202/5
f 49/153/6 46/203/6 121/156/6
f 192/199/35 55/180/35 57/204/35
f 68/186/32 205/185/32 202/205/32
f 169/189/5 265/206/5 268/146/5
f 34/190/6 133/152/6 131/207/6
f 256/201/36 120/179/36 122/208/36
f 167/192/33 30/191/33 33/209/33
f 264/200/37 128/210/37 130/182/37
f 182/202/5 255/155/5 257/211/5
f 46/203/6 123/212/6 121/156/6
f 122/208/38 258/213/38 256/201/38
f 128/210/37 264/200/37 262/214/37
f 47/197/34 184/196/34 181/215/34
f 258/213/38 122/208/38 124/216/38
f 169/189/5 263/217/5 265/206/5
f 34/190/6 131/207/6 129/218/6
f 203/184/5 190/194/5 200/219/5
f 67/188/6 65/220/6 56/195/6
f 262/214/39 126/221/39 128/210/39
f 124/216/40 260/222/40 258/213/40
f 182/202/5 257/211/5 259/223/5
f 46/203/6 125/224/6 123/212/6
f 126/221/39 262/214/39 260/222/39
f 260/222/40 124/216/40 126/221/40
f 169/189/5 261/225/5 263/217/5
f 34/190/6 129/218/6 127/226/6
f 63/227/6 59/228/6 56/195/6
f 198/229/5 190/194/5 193/230/5
f 182/202/5 259/223/5 261/225/5
f 46/203/6 127/226/6 125/224/6
f 201/231/41 66/232/41 69/233/41
f 182/202/5 261/225/5 169/189/5
f 46/203/6 34/190/6 127/226/6
f 58/234/42 194/235/42 191/236/42
f 66/232/41 201/231/41 199/237/41
f 35/238/43 170/239/43 168/240/43
f 65/220/6 63/227/6 56/195/6
f 200/219/5 190/194/5 198/229/5
f 182/202/5 169/189/5 171/241/5
f 46/203/6 36/242/6 34/190/6
f 180/243/44 45/244/44 48/245/44
f 170/239/43 35/238/43 37/246/43
f 63/227/6 61/247/6 59/228/6
f 198/229/5 193/230/5 196/248/5
f 199/237/45 64/249/45 66/232/45
f 45/244/44 180/243/44 178/250/44
f 194/235/42 58/234/42 60/251/42
f 182/202/5 171/241/5 173/252/5
f 46/203/6 38/253/6 36/242/6
f 64/249/45 199/237/45 197/254/45
f 182/202/5 177/255/5 179/256/5
f 46/203/6 44/257/6 42/258/6
f 37/246/46 172/259/46 170/239/46
f 46/203/6 40/260/6 38/253/6
f 182/202/5 173/252/5 175/261/5
f 182/202/5 175/261/5 177/255/5
f 46/203/6 42/258/6 40/260/6
f 197/254/47 62/262/47 64/249/47
f 178/250/48 43/263/48 45/244/48
f 62/262/47 197/254/47 195/264/47
f 172/259/46 37/246/46 39/265/46
f 43/263/48 178/250/48 176/266/48
f 39/265/49 174/267/49 172/259/49
f 176/266/50 41/268/50 43/263/50
f 174/267/49 39/265/49 41/268/49
f 41/268/50 176/266/50 174/267/50
