
o bribe
v 0.110200 0.001484 -0.060247
v 0.110200 0.001484 -0.060247
v 0.187527 0.108266 -0.024996
v 0.187527 0.108266 -0.024996
v 0.187527 0.108266 -0.024996
v 0.056388 0.094690 -0.060247
v 0.056388 0.094690 -0.060247
v 0.056388 0.094690 -0.060247
v 0.002575 0.215048 -0.024996
v 0.002575 0.215048 -0.024996
v 0.002575 0.215048 -0.024996
v -0.051238 0.094690 -0.060247
v -0.051238 0.094690 -0.060247
v -0.051238 0.094690 -0.060247
v -0.182377 0.108266 -0.024996
v -0.182377 0.108266 -0.024996
v -0.182377 0.108266 -0.024996
v -0.105050 0.001484 -0.060247
v -0.105050 0.001484 -0.060247
v -0.182377 -0.105298 -0.024996
v -0.182377 -0.105298 -0.024996
v -0.182377 -0.105298 -0.024996
v -0.051238 -0.091722 -0.060247
v -0.051238 -0.091722 -0.060247
v -0.051238 -0.091722 -0.060247
v 0.002575 -0.212080 -0.024996
v 0.002575 -0.212080 -0.024996
v 0.002575 -0.212080 -0.024996
v 0.056388 -0.091722 -0.060247
v 0.056388 -0.091722 -0.060247
v 0.056388 -0.091722 -0.060247
v 0.187527 -0.105298 -0.024996
v 0.187527 -0.105298 -0.024996
v 0.187527 -0.105298 -0.024996
v 0.110200 0.001484 0.056111
v 0.110200 0.001484 0.056111
v 0.187527 0.108266 0.023186
v 0.187527 0.108266 0.023186
v 0.187527 0.108266 0.023186
v 0.056388 0.094690 0.056111
v 0.056388 0.094690 0.056111
v 0.056388 0.094690 0.056111
v 0.002575 0.215048 0.023186
v 0.002575 0.215048 0.023186
v 0.002575 0.215048 0.023186
v -0.051238 0.094690 0.056111
v -0.051238 0.094690 0.056111
v -0.051238 0.094690 0.056111
v -0.182377 0.108266 0.023186
v -0.182377 0.108266 0.023186
v -0.182377 0.108266 0.023186
v -0.105050 0.001484 0.056111
v -0.105050 0.001484 0.056111
v -0.182377 -0.105298 0.023186
v -0.182377 -0.105298 0.023186
v -0.182377 -0.105298 0.023186
v -0.051238 -0.091722 0.056111
v -0.051238 -0.091722 0.056111
v -0.051238 -0.091722 0.056111
v 0.002575 -0.212080 0.023186
v 0.002575 -0.212080 0.023186
v 0.002575 -0.212080 0.023186
v 0.056388 -0.091722 0.056111
v 0.056388 -0.091722 0.056111
v 0.056388 -0.091722 0.056111
v 0.187527 -0.105298 0.023186
v 0.187527 -0.105298 0.023186
v 0.187527 -0.105298 0.023186
vt 0.716819 0.749750
vt 0.303150 0.749750
vt 0.999500 0.500000
vt 0.716820 0.250250
vt 0.000500 0.500000
vt 0.303150 0.250250
vt 0.000499 0.283181
vt 0.354668 0.999501
vt 0.000500 0.696850
vt 0.999500 0.283180
vt 0.999500 0.696850
vt 0.645332 0.000500
vt 0.209336 0.500000
vt 0.354668 0.717998
vt 0.000499 0.749750
vt 0.999500 0.749750
vt 0.645332 0.717998
vt 0.790664 0.500000
vt 0.354668 0.282002
vt 0.000500 0.250250
vt 0.999500 0.250250
vt 0.645332 0.282002
vt 0.354668 0.000500
vt 0.645332 0.999500
vt 0.999500 0.717998
vt 0.303150 0.999500
vt 0.000500 0.717998
vt 0.999500 0.282002
vt 0.000500 0.282002
vt 0.716820 0.000500
vt 0.716820 0.999500
vt 0.790664 0.500000
vt 0.209336 0.500000
vt 0.303150 0.000500
vt 0.500000 0.999500
vt 0.354668 0.717998
vt 0.645332 0.717998
vt 0.500000 0.999500
vt 0.645332 0.282002
vt 0.500000 0.000500
vt 0.500000 0.000500
vt 0.354668 0.282002
vt 0.283180 0.999500
vt 0.999500 0.717998
vt 0.696850 0.999500
vt 0.283180 0.000500
vt 0.696850 0.000500
vt 0.000500 0.282002
vt 0.000500 0.717998
vt 0.999500 0.282002
vt 0.645332 0.000500
vt 0.999500 0.696850
vt 0.645332 0.999500
vt 0.354668 0.000499
vt 0.354668 0.999500
vt 0.000500 0.283180
vt 0.999500 0.250250
vt 0.999500 0.749750
vt 0.000500 0.250250
vt 0.000500 0.749750
vt 0.000500 0.500000
vt 0.999500 0.500000
vt 0.283180 0.749750
vt 0.696849 0.250250
vt 0.999500 0.283180
vt 0.000500 0.696849
vt 0.283180 0.250250
vt 0.696850 0.749750
vn -0.8099 -0.5865 0.0000
vn -0.8099 0.5865 -0.0000
vn 0.1030 0.9947 -0.0000
vn 0.1030 -0.9947 0.0000
vn -0.2285 0.1319 0.9646
vn -0.2434 0.1405 -0.9597
vn -0.2285 -0.1319 0.9646
vn -0.2434 -0.1405 -0.9597
vn -0.9129 0.4082 0.0000
vn -0.9129 -0.4082 0.0000
vn 0.0000 0.0000 1.0000
vn -0.0000 -0.0000 -1.0000
vn 0.0000 0.2811 -0.9597
vn 0.0000 0.2639 0.9646
vn 0.0000 -0.2639 0.9646
vn 0.0000 -0.2811 -0.9597
vn 0.9129 0.4082 0.0000
vn 0.9129 -0.4082 0.0000
vn -0.1030 0.9947 0.0000
vn -0.1030 -0.9947 0.0000
vn 0.2285 -0.1319 0.9646
vn 0.2285 0.1319 0.9646
vn 0.2434 -0.1405 -0.9597
vn 0.2434 0.1405 -0.9597
vn 0.8099 -0.5865 0.0000
vn 0.8099 0.5865 -0.0000
usemtl g0m0.008
s off
f 51/1/1 16/2/1 53/3/1
f 55/4/2 18/5/2 20/6/2
f 50/7/3 13/8/3 15/9/3
f 56/10/4 21/11/4 58/12/4
f 53/3/2 18/5/2 55/4/2
f 53/3/1 16/2/1 18/5/1
f 52/13/5 46/14/5 49/15/5
f 17/16/6 14/17/6 19/18/6
f 57/19/7 52/13/7 54/20/7
f 22/21/8 19/18/8 25/22/8
f 47/23/3 13/8/3 50/7/3
f 58/12/4 21/11/4 24/24/4
f 48/25/9 9/26/9 12/27/9
f 59/28/10 23/29/10 62/30/10
f 45/31/9 9/26/9 48/25/9
f 52/13/11 36/32/11 46/14/11
f 14/17/12 1/33/12 19/18/12
f 57/19/11 36/32/11 52/13/11
f 19/18/12 1/33/12 25/22/12
f 62/30/10 23/29/10 26/34/10
f 10/35/13 6/36/13 14/17/13
f 46/14/14 41/37/14 44/38/14
f 65/39/15 57/19/15 61/40/15
f 27/41/16 25/22/16 30/42/16
f 43/43/17 8/44/17 11/45/17
f 60/46/18 28/47/18 63/48/18
f 46/14/11 36/32/11 41/37/11
f 40/49/17 8/44/17 43/43/17
f 6/36/12 1/33/12 14/17/12
f 65/39/11 36/32/11 57/19/11
f 25/22/12 1/33/12 30/42/12
f 63/48/18 28/47/18 31/50/18
f 42/51/19 5/52/19 7/53/19
f 64/54/20 29/55/20 66/56/20
f 36/32/21 65/39/21 68/57/21
f 41/37/22 36/32/22 38/58/22
f 33/59/23 30/42/23 1/33/23
f 3/60/24 1/33/24 6/36/24
f 35/61/25 2/62/25 37/63/25
f 35/61/26 34/64/26 2/62/26
f 39/65/19 5/52/19 42/51/19
f 66/56/20 29/55/20 32/66/20
f 67/67/26 34/64/26 35/61/26
f 37/63/25 2/62/25 4/68/25
