# Blender v2.79 (sub 0) OBJ File: ''
# www.blender.org

o property_fsale
v 0.088558 -0.122225 -0.033486
v 0.088558 -0.122225 -0.033486
v 0.088558 -0.122225 -0.033486
v 0.088344 0.001847 -0.033486
v 0.088344 0.001847 -0.033486
v 0.088344 0.001847 -0.033486
v 0.147467 0.001847 -0.033486
v 0.147467 0.001847 -0.033486
v 0.147467 0.001847 -0.033486
v -0.000103 0.161877 -0.033486
v -0.000103 0.161877 -0.033486
v -0.000103 0.161877 -0.033486
v -0.155531 0.005542 -0.033486
v -0.155531 0.005542 -0.033486
v -0.155531 0.005542 -0.033486
v -0.100012 0.005577 -0.033486
v -0.100012 0.005577 -0.033486
v -0.100012 0.005577 -0.033486
v -0.099894 -0.119586 -0.033486
v -0.099894 -0.119586 -0.033486
v -0.099894 -0.119586 -0.033486
v 0.088558 -0.122225 0.031186
v 0.088558 -0.122225 0.031186
v 0.088558 -0.122225 0.031186
v 0.088344 0.001847 0.031186
v 0.088344 0.001847 0.031186
v 0.088344 0.001847 0.031186
v 0.147467 0.001847 0.031186
v 0.147467 0.001847 0.031186
v 0.147467 0.001847 0.031186
v -0.000103 0.161877 0.031186
v -0.000103 0.161877 0.031186
v -0.000103 0.161877 0.031186
v -0.155531 0.005542 0.031186
v -0.155531 0.005542 0.031186
v -0.155531 0.005542 0.031186
v -0.100012 0.005577 0.031186
v -0.100012 0.005577 0.031186
v -0.100012 0.005577 0.031186
v -0.099894 -0.119586 0.031186
v -0.099894 -0.119586 0.031186
v -0.099894 -0.119586 0.031186
v 0.048816 0.108827 -0.033486
v 0.048816 0.108827 -0.033486
v 0.048816 0.108827 -0.033486
v 0.048816 0.108827 -0.033486
v 0.045541 0.112379 0.031186
v 0.045541 0.112379 0.031186
v 0.045541 0.112379 0.031186
v 0.045541 0.112379 0.031186
v 0.084289 0.070161 -0.033486
v 0.084289 0.070161 -0.033486
v 0.084289 0.070161 -0.033486
v 0.081929 0.072720 0.031186
v 0.081929 0.072720 0.031186
v 0.081929 0.072720 0.031186
v 0.050368 0.139715 -0.033486
v 0.050368 0.139715 -0.033486
v 0.050368 0.139715 -0.033486
v 0.045541 0.139910 0.031186
v 0.045541 0.139910 0.031186
v 0.045541 0.139910 0.031186
v 0.085995 0.139851 -0.033486
v 0.085995 0.139851 -0.033486
v 0.085995 0.139851 -0.033486
v 0.082517 0.139992 0.031186
v 0.082517 0.139992 0.031186
v 0.082517 0.139992 0.031186
vt 0.999501 0.999499
vt 0.999500 0.000499
vt 0.816452 0.999500
vt 0.816452 0.000500
vt 0.000500 0.999499
vt 0.512954 0.000500
vt 0.000500 0.000499
vt 0.999500 0.550104
vt 0.000500 0.550104
vt 0.999500 0.990220
vt 0.000500 0.990220
vt 0.183548 0.550104
vt 0.512953 0.000500
vt 0.000500 0.550228
vt 0.999500 0.550228
vt 0.487046 0.000500
vt 0.816452 0.550104
vt 0.512953 0.999500
vt 0.183939 0.990220
vt 0.804568 0.563221
vt 0.195432 0.563221
vt 0.816061 0.990220
vt 0.816061 0.999500
vt 0.816061 0.000500
vt 0.194725 0.999500
vt 0.000500 0.000500
vt 0.999500 0.187041
vt 0.999500 0.000500
vt 0.805275 0.999500
vt 0.194725 0.999500
vt 0.194725 0.000500
vt 0.000500 0.174552
vt 0.663445 0.174552
vt 0.325757 0.187041
vt 0.999500 0.077742
vt 0.000500 0.187041
vt 0.999500 0.174552
vt 0.000500 0.078430
vt 0.663445 0.174552
vt 0.785356 0.077453
vt 0.663446 0.077742
vt 0.663446 0.999500
vt 0.796825 0.000500
vt 0.679361 0.000500
vt 0.320639 0.078430
vt 0.208800 0.323005
vt 0.325757 0.187041
vt 0.783419 0.314006
vt 0.785356 0.999500
vt 0.783419 0.314006
vt 0.203175 0.077949
vt 0.208800 0.323005
vt 0.000500 0.314006
vt 0.999500 0.077949
vt 0.000500 0.077453
vt 0.999500 0.323005
vt 0.000500 0.563221
vt 0.999500 0.999500
vt 0.999500 0.563221
vt 0.000500 0.999500
vt 0.999499 0.563221
vt 0.999500 0.563221
vt 0.000500 0.563221
vt 0.195432 0.999500
vt 0.195432 0.000500
vt 0.000500 0.999501
vt 0.000499 0.563221
vt 0.000500 0.000501
vn 0.0006 -1.0000 0.0000
vn -0.7092 0.7050 0.0000
vn -1.0000 -0.0009 0.0000
vn -0.0000 0.0000 1.0000
vn 0.0000 0.0000 -1.0000
vn -0.0140 -0.9999 0.0000
vn 0.7351 0.6779 0.0000
vn -0.9987 0.0000 -0.0506
vn -0.9960 0.0501 -0.0745
vn -0.0038 1.0000 -0.0033
vn -0.0022 1.0000 -0.0023
vn 0.9985 -0.0087 0.0537
vn 0.9990 -0.0245 0.0374
vn 1.0000 0.0017 0.0000
vn 0.7342 0.6790 -0.0001
vn 0.0000 -1.0000 0.0000
vn 0.7342 0.6789 0.0000
usemtl g0m0.001
s off
f 36/1/1 15/2/1 38/3/1
f 38/3/1 15/2/1 18/4/1
f 34/5/2 11/6/2 13/7/2
f 39/8/3 16/9/3 42/10/3
f 42/10/3 16/9/3 19/11/3
f 37/12/4 33/13/4 35/14/4
f 14/15/5 10/16/5 17/17/5
f 32/18/2 11/6/2 34/5/2
f 40/19/4 27/20/4 37/12/4
f 17/17/5 4/21/5 20/22/5
f 41/23/6 21/24/6 23/25/6
f 10/16/5 4/21/5 17/17/5
f 37/12/4 27/20/4 33/13/4
f 31/26/7 46/27/7 12/28/7
f 24/29/4 27/20/4 40/19/4
f 20/22/5 4/21/5 1/30/5
f 23/25/6 21/24/6 2/31/6
f 47/32/7 46/27/7 31/26/7
f 33/13/4 27/20/4 49/33/4
f 45/34/5 4/21/5 10/16/5
f 62/35/8 43/36/8 50/37/8
f 43/36/9 62/35/9 57/38/9
f 48/39/4 68/40/4 61/41/4
f 60/42/10 64/43/10 59/44/10
f 58/45/5 51/46/5 44/47/5
f 68/40/4 48/39/4 55/48/4
f 67/49/11 64/43/11 60/42/11
f 49/33/4 27/20/4 56/50/4
f 51/46/5 58/45/5 63/51/5
f 52/52/5 4/21/5 45/34/5
f 54/53/12 65/54/12 66/55/12
f 65/54/13 54/53/13 53/56/13
f 25/57/14 3/58/14 6/59/14
f 22/60/14 3/58/14 25/57/14
f 54/53/15 9/61/15 53/56/15
f 56/50/4 27/20/4 30/62/4
f 7/63/5 4/21/5 52/52/5
f 26/64/16 5/65/16 29/66/16
f 28/67/17 9/61/17 54/53/17
f 29/66/16 5/65/16 8/68/16
