
o briefcase_l0
v -0.242599 -0.148438 0.025877
v -0.242599 -0.148438 0.025877
v -0.242599 -0.148438 0.025877
v 0.251979 -0.148438 0.025877
v 0.251979 -0.148438 0.025877
v 0.251979 -0.148438 0.025877
v -0.242599 0.162315 0.027635
v -0.242599 0.162315 0.027635
v -0.242599 0.162315 0.027635
v 0.251979 0.162315 0.027635
v 0.251979 0.162315 0.027635
v 0.251979 0.162315 0.027635
v -0.242599 -0.148438 0.099745
v -0.242599 -0.148438 0.099745
v -0.242599 -0.148438 0.099745
v 0.251979 -0.148438 0.099745
v 0.251979 -0.148438 0.099745
v 0.251979 -0.148438 0.099745
v -0.242599 0.162315 0.097986
v -0.242599 0.162315 0.097986
v -0.242599 0.162315 0.097986
v 0.251979 0.162315 0.097986
v 0.251979 0.162315 0.097986
v 0.251979 0.162315 0.097986
v 0.040765 0.203880 0.063046
v 0.040765 0.203880 0.063046
v -0.033666 0.203880 0.063046
v -0.033666 0.203880 0.063046
v 0.059909 0.222141 0.063046
v 0.059909 0.222141 0.063046
v 0.059909 0.222141 0.063046
v -0.052810 0.222141 0.063046
v -0.052810 0.222141 0.063046
v -0.052810 0.222141 0.063046
v -0.067429 0.162468 0.053016
v -0.067429 0.162468 0.053016
v -0.067429 0.162468 0.073075
v -0.067429 0.162468 0.073075
v -0.039826 0.162468 0.063046
v -0.039826 0.162468 0.063046
v 0.074528 0.162468 0.053016
v 0.074528 0.162468 0.053016
v 0.074528 0.162468 0.073075
v 0.074528 0.162468 0.073075
v 0.046925 0.162468 0.063046
v 0.046925 0.162468 0.063046
vt 0.715302 0.000529
vt 0.284698 -0.233622
vt 0.715302 -0.233622
vt 0.284698 0.000529
vt 0.000500 -0.999434
vt 0.999500 -0.185020
vt 0.000500 -0.184953
vt 1.005421 -0.075470
vt 0.038088 -0.343614
vt 1.001474 -0.343614
vt 0.000500 -0.234900
vt 0.999501 0.001127
vt 0.000500 0.001129
vt -0.001474 -0.183315
vt 0.999500 -0.999500
vt 0.997527 -0.183315
vt 0.889554 -0.999715
vt 0.444999 -0.430285
vt 0.000445 -0.999715
vt 0.211908 -0.636376
vt 0.092007 -0.430285
vt 0.000445 -0.999715
vt 0.889555 -0.999715
vt 0.797993 -0.430285
vt 0.678092 -0.636376
vt 0.173332 -0.999715
vt 0.716668 -0.999715
vt 0.678092 -0.636376
vt 0.211908 -0.636376
vt 0.092007 -0.430285
vt 0.797993 -0.430285
vt 0.716668 -0.999715
vt 0.889555 -0.999715
vt 0.000445 -0.999715
vt 0.173332 -0.999715
vt 0.889554 -0.999715
vt 0.445000 -0.430285
vt 0.000445 -0.999715
vt 0.999500 -0.999501
vt 0.999500 -0.234901
vt 0.042035 -0.075470
vt 0.000500 -0.999500
vt 0.744375 -0.004195
vt 0.271413 -0.234529
vt 0.740428 -0.234529
vt 0.275360 -0.004195
vn -1.0000 -0.0000 0.0000
vn 0.0000 0.0057 1.0000
vn 0.0000 -1.0000 0.0000
vn 0.0000 1.0000 0.0000
vn 0.0000 0.0057 -1.0000
vn -0.9713 0.2380 0.0000
vn 0.1277 0.1339 0.9827
vn 0.1277 0.1339 -0.9827
vn 0.3411 -0.0507 0.9387
vn 0.3411 -0.0507 -0.9387
vn 0.0000 0.0000 1.0000
vn 0.0000 0.0000 -1.0000
vn -0.3411 -0.0507 0.9387
vn -0.3411 -0.0507 -0.9387
vn -0.1277 0.1339 0.9827
vn -0.1277 0.1339 -0.9827
vn 0.9713 0.2380 0.0000
vn 1.0000 0.0000 0.0000
usemtl g0m0.009
s off
f 8/1/1 14/2/1 21/3/1
f 14/2/1 8/1/1 1/4/1
f 13/5/2 23/6/2 20/7/2
f 3/8/3 16/9/3 15/10/3
f 19/11/4 12/12/4 7/13/4
f 10/14/5 2/15/5 9/16/5
f 38/17/6 33/18/6 35/19/6
f 27/20/7 32/21/7 37/22/7
f 36/23/8 34/24/8 28/25/8
f 27/20/9 37/22/9 39/26/9
f 40/27/10 36/23/10 28/25/10
f 27/20/11 26/28/11 32/21/11
f 28/25/12 34/24/12 25/29/12
f 29/30/12 25/29/12 34/24/12
f 31/31/11 32/21/11 26/28/11
f 46/32/13 44/33/13 26/28/13
f 25/29/14 41/34/14 45/35/14
f 44/33/15 31/31/15 26/28/15
f 25/29/16 29/30/16 41/34/16
f 42/36/17 30/37/17 43/38/17
f 23/6/2 13/5/2 18/39/2
f 12/12/4 19/11/4 24/40/4
f 16/9/3 3/8/3 5/41/3
f 2/15/5 10/14/5 4/42/5
f 6/43/18 22/44/18 17/45/18
f 22/44/18 6/43/18 11/46/18
