
o Money_L0
v -0.094328 0.000000 0.030962
v -0.094328 0.000000 0.030962
v -0.094328 0.000000 0.030962
v 0.105672 0.000000 0.030962
v 0.105672 0.000000 0.030962
v 0.105672 0.000000 0.030962
v -0.094328 0.000000 -0.044038
v -0.094328 0.000000 -0.044038
v -0.094328 0.000000 -0.044038
v 0.105672 0.000000 -0.044038
v 0.105672 0.000000 -0.044038
v 0.105672 0.000000 -0.044038
v -0.094328 0.075000 0.030962
v -0.094328 0.075000 0.030962
v -0.094328 0.075000 0.030962
v 0.105672 0.075000 0.030962
v 0.105672 0.075000 0.030962
v 0.105672 0.075000 0.030962
v -0.094328 0.075000 -0.044038
v -0.094328 0.075000 -0.044038
v -0.094328 0.075000 -0.044038
v 0.105672 0.075000 -0.044038
v 0.105672 0.075000 -0.044038
v 0.105672 0.075000 -0.044038
vt 1.000000 0.553140
vt 0.599961 0.000000
vt 1.000000 0.000000
vt 0.599961 0.553140
vt 0.000000 0.000000
vt 1.000000 0.553140
vt 0.000000 0.553140
vt 0.000000 1.000000
vt 1.000000 0.555556
vt 1.000000 1.000000
vt 0.000000 0.555556
vt 1.000000 1.000000
vt 0.000000 1.000000
vt 1.000000 0.553140
vt 0.000000 0.000000
vt 1.000000 0.000000
vt 1.000000 0.000000
vt 0.000000 0.555556
vt 1.000000 0.555556
vt 0.000000 0.553140
vt 0.599961 0.000000
vt 1.000000 0.553140
vt 0.599961 0.553140
vt 1.000000 0.000000
vn -1.0000 0.0000 0.0000
vn 0.0000 0.0000 1.0000
vn 0.0000 -1.0000 0.0000
vn 0.0000 1.0000 0.0000
vn 0.0000 0.0000 -1.0000
vn 1.0000 0.0000 0.0000
usemtl g0m0.013
s off
f 15/1/1 7/2/1 3/3/1
f 7/2/1 15/1/1 20/4/1
f 1/5/2 18/6/2 14/7/2
f 10/8/3 2/9/3 8/10/3
f 13/11/4 23/12/4 19/13/4
f 21/14/5 11/15/5 9/16/5
f 18/6/2 1/5/2 6/17/2
f 2/9/3 10/8/3 4/18/3
f 23/12/4 13/11/4 17/19/4
f 11/15/5 21/14/5 22/20/5
f 5/21/6 24/22/6 16/23/6
f 24/22/6 5/21/6 12/24/6
