
o drug_white
v -0.224470 0.039815 0.138896
v -0.085118 0.022396 0.156315
v 0.094048 0.022396 0.156315
v 0.233400 0.039815 0.138896
v -0.223641 0.027373 -0.000456
v -0.078483 0.006636 -0.000456
v 0.087412 0.006636 -0.000456
v 0.232571 0.027373 -0.000456
v -0.224470 0.039815 -0.139808
v -0.085118 0.022396 -0.157227
v 0.094048 0.022396 -0.157227
v 0.233400 0.039815 -0.139808
v -0.224470 0.139352 0.138896
v -0.085118 0.156771 0.156315
v 0.094048 0.156771 0.156315
v 0.233400 0.139352 0.138896
v -0.223641 0.151794 -0.000456
v -0.078483 0.172531 -0.000456
v 0.087412 0.172531 -0.000456
v 0.232571 0.151794 -0.000456
v -0.224470 0.139352 -0.139808
v -0.085118 0.156771 -0.157227
v 0.094048 0.156771 -0.157227
v 0.233400 0.139352 -0.139808
v -0.174702 0.000000 0.089127
v 0.004465 0.006728 0.082400
v 0.183632 0.000000 0.089127
v -0.174702 0.000000 -0.090039
v 0.004465 0.006728 -0.083311
v 0.183632 0.000000 -0.090039
v -0.174702 0.179167 0.089127
v 0.004465 0.172439 0.082400
v 0.183632 0.179167 0.089127
v -0.174702 0.179167 -0.090039
v 0.004465 0.172439 -0.083311
v 0.183632 0.179167 -0.090039
v -0.174702 0.089583 0.178711
v 0.004465 0.089583 0.165255
v 0.183632 0.089583 0.178711
v 0.273215 0.089583 0.089127
v 0.273215 0.089583 -0.090039
v 0.183632 0.089583 -0.179623
v 0.004465 0.089583 -0.166167
v -0.174702 0.089583 -0.179623
v -0.264285 0.089583 -0.090039
v -0.264285 0.089583 0.089127
v -0.241889 0.022396 0.089127
v -0.161430 0.006636 -0.000456
v -0.085118 0.000000 0.089127
v -0.174702 0.022396 0.156315
v 0.004465 0.006728 -0.000456
v 0.094048 0.000000 0.089127
v 0.004465 0.027442 0.144541
v 0.170360 0.006636 -0.000456
v 0.250819 0.022396 0.089127
v 0.183632 0.022396 0.156315
v -0.241889 0.022396 -0.090039
v -0.174702 0.022396 -0.157227
v -0.085118 0.000000 -0.090039
v 0.004465 0.027442 -0.145453
v 0.094048 0.000000 -0.090039
v 0.183632 0.022396 -0.157227
v 0.250819 0.022396 -0.090039
v -0.174702 0.156771 0.156315
v -0.085118 0.179167 0.089127
v -0.161430 0.172531 -0.000456
v -0.241889 0.156771 0.089127
v 0.004465 0.151725 0.144541
v 0.094048 0.179167 0.089127
v 0.004465 0.172439 -0.000456
v 0.183632 0.156771 0.156315
v 0.250819 0.156771 0.089127
v 0.170360 0.172531 -0.000456
v -0.085118 0.179167 -0.090039
v -0.174702 0.156771 -0.157227
v -0.241889 0.156771 -0.090039
v 0.094048 0.179167 -0.090039
v 0.004465 0.151725 -0.145453
v 0.250819 0.156771 -0.090039
v 0.183632 0.156771 -0.157227
v -0.085118 0.089583 0.178711
v -0.241889 0.089583 0.156315
v 0.094048 0.089583 0.178711
v 0.250819 0.089583 0.156315
v 0.253307 0.089583 -0.000456
v 0.250819 0.089583 -0.157227
v 0.094048 0.089583 -0.179623
v -0.085118 0.089583 -0.179623
v -0.241889 0.089583 -0.157227
v -0.244378 0.089583 -0.000456
vt 0.076041 0.500000
vt 0.000500 0.250250
vt 0.037500 0.500000
vt 0.076041 0.500000
vt 0.000500 0.749750
vt 0.074500 0.111500
vt 0.042125 0.062937
vt 0.074500 0.111500
vt 0.042125 0.250250
vt 0.042125 0.250250
vt 0.074500 0.888500
vt 0.042125 0.749750
vt 0.074500 0.888500
vt 0.042125 0.749750
vt 0.042125 0.937063
vt 0.167000 0.749750
vt 0.167000 0.999501
vt 0.167000 0.000500
vt 0.167000 0.250250
vt 0.167000 0.250250
vt 0.167000 0.749750
vt 0.167000 0.062937
vt 0.167000 0.062937
vt 0.167000 0.937063
vt 0.167000 0.937063
vt 0.191666 0.500000
vt 0.191666 0.500000
vt 0.333500 0.062937
vt 0.333500 0.062937
vt 0.333500 0.937063
vt 0.333500 0.937063
vt 0.345833 0.500000
vt 0.345833 0.500000
vt 0.333500 0.000500
vt 0.333500 0.250250
vt 0.333500 0.250250
vt 0.333500 0.749750
vt 0.333500 0.749750
vt 0.333500 0.999500
vt 0.500000 0.038013
vt 0.500000 0.269006
vt 0.500000 0.269006
vt 0.500000 0.730994
vt 0.500000 0.961987
vt 0.500000 0.730994
vt 0.500000 0.095761
vt 0.500000 0.095761
vt 0.500000 0.904239
vt 0.500000 0.904239
vt 0.500000 0.500000
vt 0.500000 0.500000
vt 0.654167 0.500000
vt 0.654167 0.500000
vt 0.666500 0.937063
vt 0.666500 0.937063
vt 0.666500 0.062937
vt 0.666500 0.062937
vt 0.666500 0.250250
vt 0.666500 0.250250
vt 0.666500 0.749750
vt 0.666500 0.749750
vt 0.666500 0.999500
vt 0.666500 0.000500
vt 0.833000 0.250250
vt 0.833000 0.749750
vt 0.833000 0.749750
vt 0.833000 0.250250
vt 0.833000 0.000499
vt 0.833000 0.999500
vt 0.808334 0.500000
vt 0.808334 0.500000
vt 0.833000 0.062937
vt 0.833000 0.937063
vt 0.833000 0.937063
vt 0.833000 0.062937
vt 0.923959 0.500000
vt 0.923959 0.500000
vt 0.925500 0.111500
vt 0.925500 0.111500
vt 0.925500 0.888500
vt 0.925500 0.888500
vt 0.957875 0.250250
vt 0.957875 0.749750
vt 0.957875 0.749750
vt 0.957875 0.250250
vt 0.957875 0.062937
vt 0.957875 0.937063
vt 0.999500 0.250250
vt 0.999500 0.749750
vt 0.962500 0.500000
vn -0.9283 -0.3094 -0.2063
vn -0.9283 0.3094 -0.2063
vn -0.9283 -0.3094 0.2063
vn -0.9283 0.3094 0.2063
vn -0.8675 -0.4048 0.2892
vn -0.8675 0.4048 0.2892
vn -0.8675 -0.2892 0.4048
vn -0.8675 0.2892 0.4048
vn -0.8675 -0.2892 -0.4048
vn -0.8675 0.2892 -0.4048
vn -0.8675 -0.4048 -0.2892
vn -0.8675 0.4048 -0.2892
vn -0.2892 -0.8675 -0.4048
vn -0.2892 0.4048 -0.8675
vn -0.2892 -0.4048 0.8675
vn -0.2892 0.4048 0.8675
vn -0.2892 -0.8675 0.4048
vn -0.2892 0.8675 0.4048
vn -0.2892 0.8675 -0.4048
vn -0.2892 -0.4048 -0.8675
vn -0.3141 -0.9422 -0.1163
vn -0.3141 0.9422 -0.1163
vn -0.3141 -0.9422 0.1163
vn -0.3141 0.9422 0.1163
vn -0.4048 -0.2892 0.8675
vn -0.4048 0.2892 0.8675
vn -0.4048 -0.8675 0.2892
vn -0.4048 0.8675 0.2892
vn -0.4048 -0.8675 -0.2892
vn -0.4048 0.8675 -0.2892
vn -0.4048 -0.2892 -0.8675
vn -0.4048 0.2892 -0.8675
vn 0.0000 -0.3162 0.9487
vn 0.0000 0.3162 0.9487
vn 0.0000 -0.9487 0.3162
vn 0.0000 0.9487 -0.3162
vn 0.0000 -0.3162 -0.9487
vn 0.0000 0.9487 0.3162
vn 0.0000 -0.9487 -0.3162
vn 0.0000 0.3162 -0.9487
vn 0.0000 -0.9973 -0.0739
vn -0.0000 0.9973 -0.0739
vn 0.0000 -0.9973 0.0739
vn -0.0000 0.9973 0.0739
vn 0.1411 -0.3131 0.9392
vn 0.0946 -0.9444 0.3148
vn 0.0946 0.9444 0.3148
vn 0.0946 -0.9444 -0.3148
vn 0.1411 0.3131 -0.9392
vn 0.1411 0.3131 0.9392
vn 0.0946 0.9444 -0.3148
vn 0.1411 -0.3131 -0.9392
vn 0.0696 -0.9952 -0.0686
vn 0.0696 0.9952 0.0686
vn 0.0696 0.9952 -0.0686
vn 0.0696 -0.9952 0.0686
vn 0.0011 -1.0000 0.0000
vn 0.0011 1.0000 0.0000
vn -0.0011 -1.0000 0.0000
vn -0.0011 1.0000 0.0000
vn -0.0946 -0.9444 -0.3148
vn -0.0946 0.9444 -0.3148
vn -0.1411 -0.3131 -0.9392
vn -0.1411 0.3131 -0.9392
vn -0.1411 -0.3131 0.9392
vn -0.1411 0.3131 0.9392
vn -0.0946 -0.9444 0.3148
vn -0.0946 0.9444 0.3148
vn -0.0696 -0.9952 -0.0686
vn -0.0696 0.9952 -0.0686
vn -0.0696 -0.9952 0.0686
vn -0.0696 0.9952 0.0686
vn 0.3141 -0.9422 -0.1163
vn 0.3141 0.9422 -0.1163
vn 0.3141 -0.9422 0.1163
vn 0.3141 0.9422 0.1163
vn 0.4048 -0.2892 0.8675
vn 0.4048 0.2892 0.8675
vn 0.4048 -0.8675 0.2892
vn 0.4048 0.8675 0.2892
vn 0.4048 -0.8675 -0.2892
vn 0.4048 0.8675 -0.2892
vn 0.4048 -0.2892 -0.8675
vn 0.4048 0.2892 -0.8675
vn 0.2892 -0.4048 0.8675
vn 0.2892 -0.8675 0.4048
vn 0.2892 0.8675 0.4048
vn 0.2892 -0.8675 -0.4048
vn 0.2892 -0.4048 -0.8675
vn 0.2892 0.4048 -0.8675
vn 0.2892 0.4048 0.8675
vn 0.2892 0.8675 -0.4048
vn 0.9283 -0.3094 -0.2063
vn 0.9283 0.3094 -0.2063
vn 0.9283 -0.3094 0.2063
vn 0.9283 0.3094 0.2063
vn 0.8675 -0.4048 0.2892
vn 0.8675 0.4048 0.2892
vn 0.8675 -0.2892 0.4048
vn 0.8675 0.2892 0.4048
vn 0.8675 0.2892 -0.4048
vn 0.8675 -0.2892 -0.4048
vn 0.8675 -0.4048 -0.2892
vn 0.8675 0.4048 -0.2892
usemtl g0m0.010
s off
f 5/1/1 46/2/1 90/3/1
f 46/2/2 17/4/2 90/3/2
f 45/5/3 5/1/3 90/3/3
f 17/4/4 45/5/4 90/3/4
f 46/2/5 1/6/5 82/7/5
f 13/8/6 46/2/6 82/7/6
f 1/6/7 46/2/7 47/9/7
f 46/2/8 13/8/8 67/10/8
f 45/5/9 9/11/9 57/12/9
f 21/13/10 45/5/10 76/14/10
f 9/11/11 45/5/11 89/15/11
f 45/5/12 21/13/12 89/15/12
f 46/2/1 5/1/1 47/9/1
f 17/4/2 46/2/2 67/10/2
f 5/1/3 45/5/3 57/12/3
f 45/5/4 17/4/4 76/14/4
f 9/11/13 28/16/13 57/12/13
f 21/13/14 44/17/14 89/15/14
f 1/6/15 37/18/15 82/7/15
f 37/18/16 13/8/16 82/7/16
f 25/19/17 1/6/17 47/9/17
f 13/8/18 31/20/18 67/10/18
f 34/21/19 21/13/19 76/14/19
f 44/17/20 9/11/20 89/15/20
f 5/1/21 25/19/21 47/9/21
f 31/20/22 17/4/22 67/10/22
f 28/16/23 5/1/23 57/12/23
f 17/4/24 34/21/24 76/14/24
f 37/18/25 1/6/25 50/22/25
f 13/8/26 37/18/26 64/23/26
f 1/6/27 25/19/27 50/22/27
f 31/20/28 13/8/28 64/23/28
f 28/16/29 9/11/29 58/24/29
f 21/13/30 34/21/30 75/25/30
f 9/11/31 44/17/31 58/24/31
f 44/17/32 21/13/32 75/25/32
f 25/19/21 5/1/21 48/26/21
f 17/4/22 31/20/22 66/27/22
f 5/1/23 28/16/23 48/26/23
f 34/21/24 17/4/24 66/27/24
f 2/28/33 37/18/33 50/22/33
f 37/18/34 14/29/34 64/23/34
f 25/19/35 2/28/35 50/22/35
f 34/21/36 22/30/36 75/25/36
f 44/17/37 10/31/37 58/24/37
f 14/29/38 31/20/38 64/23/38
f 10/31/39 28/16/39 58/24/39
f 22/30/40 44/17/40 75/25/40
f 6/32/41 25/19/41 48/26/41
f 31/20/42 18/33/42 66/27/42
f 28/16/43 6/32/43 48/26/43
f 18/33/44 34/21/44 66/27/44
f 37/18/33 2/28/33 81/34/33
f 2/28/35 25/19/35 49/35/35
f 14/29/34 37/18/34 81/34/34
f 31/20/38 14/29/38 65/36/38
f 28/16/39 10/31/39 59/37/39
f 22/30/36 34/21/36 74/38/36
f 10/31/37 44/17/37 88/39/37
f 44/17/40 22/30/40 88/39/40
f 25/19/41 6/32/41 49/35/41
f 18/33/42 31/20/42 65/36/42
f 6/32/43 28/16/43 59/37/43
f 34/21/44 18/33/44 74/38/44
f 2/28/45 38/40/45 81/34/45
f 26/41/46 2/28/46 49/35/46
f 14/29/47 32/42/47 65/36/47
f 10/31/48 29/43/48 59/37/48
f 22/30/49 43/44/49 88/39/49
f 38/40/50 14/29/50 81/34/50
f 35/45/51 22/30/51 74/38/51
f 43/44/52 10/31/52 88/39/52
f 6/32/53 26/41/53 49/35/53
f 18/33/54 35/45/54 74/38/54
f 32/42/55 18/33/55 65/36/55
f 29/43/56 6/32/56 59/37/56
f 38/40/45 2/28/45 53/46/45
f 2/28/46 26/41/46 53/46/46
f 14/29/50 38/40/50 68/47/50
f 32/42/47 14/29/47 68/47/47
f 29/43/48 10/31/48 60/48/48
f 22/30/51 35/45/51 78/49/51
f 10/31/52 43/44/52 60/48/52
f 43/44/49 22/30/49 78/49/49
f 26/41/57 6/32/57 51/50/57
f 18/33/58 32/42/58 70/51/58
f 6/32/57 29/43/57 51/50/57
f 35/45/58 18/33/58 70/51/58
f 7/52/59 26/41/59 51/50/59
f 32/42/60 19/53/60 70/51/60
f 29/43/59 7/52/59 51/50/59
f 19/53/60 35/45/60 70/51/60
f 11/54/61 29/43/61 60/48/61
f 35/45/62 23/55/62 78/49/62
f 43/44/63 11/54/63 60/48/63
f 23/55/64 43/44/64 78/49/64
f 3/56/65 38/40/65 53/46/65
f 38/40/66 15/57/66 68/47/66
f 26/41/67 3/56/67 53/46/67
f 15/57/68 32/42/68 68/47/68
f 26/41/69 7/52/69 52/58/69
f 19/53/70 32/42/70 69/59/70
f 7/52/71 29/43/71 61/60/71
f 35/45/72 19/53/72 77/61/72
f 11/54/63 43/44/63 87/62/63
f 38/40/65 3/56/65 83/63/65
f 15/57/66 38/40/66 83/63/66
f 32/42/68 15/57/68 69/59/68
f 3/56/67 26/41/67 52/58/67
f 23/55/62 35/45/62 77/61/62
f 29/43/61 11/54/61 61/60/61
f 43/44/64 23/55/64 87/62/64
f 7/52/41 27/64/41 52/58/41
f 30/65/43 7/52/43 61/60/43
f 19/53/44 36/66/44 77/61/44
f 33/67/42 19/53/42 69/59/42
f 3/56/33 39/68/33 83/63/33
f 39/68/34 15/57/34 83/63/34
f 27/64/35 3/56/35 52/58/35
f 15/57/38 33/67/38 69/59/38
f 11/54/39 30/65/39 61/60/39
f 36/66/36 23/55/36 77/61/36
f 42/69/37 11/54/37 87/62/37
f 23/55/40 42/69/40 87/62/40
f 7/52/43 30/65/43 54/70/43
f 27/64/41 7/52/41 54/70/41
f 19/53/42 33/67/42 73/71/42
f 36/66/44 19/53/44 73/71/44
f 3/56/35 27/64/35 56/72/35
f 30/65/39 11/54/39 62/73/39
f 11/54/37 42/69/37 62/73/37
f 42/69/40 23/55/40 80/74/40
f 15/57/34 39/68/34 71/75/34
f 23/55/36 36/66/36 80/74/36
f 39/68/33 3/56/33 56/72/33
f 33/67/38 15/57/38 71/75/38
f 8/76/73 27/64/73 54/70/73
f 33/67/74 20/77/74 73/71/74
f 30/65/75 8/76/75 54/70/75
f 20/77/76 36/66/76 73/71/76
f 4/78/77 39/68/77 56/72/77
f 39/68/78 16/79/78 71/75/78
f 27/64/79 4/78/79 56/72/79
f 16/79/80 33/67/80 71/75/80
f 12/80/81 30/65/81 62/73/81
f 36/66/82 24/81/82 80/74/82
f 42/69/83 12/80/83 62/73/83
f 24/81/84 42/69/84 80/74/84
f 27/64/73 8/76/73 55/82/73
f 8/76/75 30/65/75 63/83/75
f 36/66/76 20/77/76 79/84/76
f 20/77/74 33/67/74 72/85/74
f 39/68/85 4/78/85 84/86/85
f 4/78/86 27/64/86 55/82/86
f 33/67/87 16/79/87 72/85/87
f 30/65/88 12/80/88 63/83/88
f 12/80/89 42/69/89 86/87/89
f 42/69/90 24/81/90 86/87/90
f 16/79/91 39/68/91 84/86/91
f 24/81/92 36/66/92 79/84/92
f 8/76/93 40/88/93 55/82/93
f 40/88/94 20/77/94 72/85/94
f 41/89/95 8/76/95 63/83/95
f 20/77/96 41/89/96 79/84/96
f 4/78/97 40/88/97 84/86/97
f 40/88/98 16/79/98 84/86/98
f 40/88/99 4/78/99 55/82/99
f 16/79/100 40/88/100 72/85/100
f 41/89/101 24/81/101 79/84/101
f 12/80/102 41/89/102 63/83/102
f 41/89/103 12/80/103 86/87/103
f 24/81/104 41/89/104 86/87/104
f 40/88/93 8/76/93 85/90/93
f 20/77/94 40/88/94 85/90/94
f 8/76/95 41/89/95 85/90/95
f 41/89/96 20/77/96 85/90/96
